<svg xmlns="http://www.w3.org/2000/svg" xmlns:xlink="http://www.w3.org/1999/xlink" width="174" zoomAndPan="magnify" viewBox="0 0 130.5 30.000001" height="40" preserveAspectRatio="xMidYMid meet" version="1.0"><defs><g/><clipPath id="4de7cb5bcf"><path d="M 1.863281 0 L 128.152344 0 L 128.152344 29.03125 L 1.863281 29.03125 Z M 1.863281 0 " clip-rule="nonzero"/></clipPath><clipPath id="9237ee6a7b"><path d="M 3.320312 1.652344 L 28.820312 1.652344 L 28.820312 27 L 3.320312 27 Z M 3.320312 1.652344 " clip-rule="nonzero"/></clipPath></defs><g clip-path="url(#4de7cb5bcf)"><path fill="#ffffff" d="M 1.863281 0 L 128.636719 0 L 128.636719 36.429688 L 1.863281 36.429688 Z M 1.863281 0 " fill-opacity="1" fill-rule="nonzero"/><path fill="#ffffff" d="M 1.863281 0 L 128.636719 0 L 128.636719 29.144531 L 1.863281 29.144531 Z M 1.863281 0 " fill-opacity="1" fill-rule="nonzero"/><path fill="#ffffff" d="M 1.863281 0 L 128.636719 0 L 128.636719 29.144531 L 1.863281 29.144531 Z M 1.863281 0 " fill-opacity="1" fill-rule="nonzero"/></g><g clip-path="url(#9237ee6a7b)"><path fill="#000000" d="M 8.410156 22.5625 L 8.726562 22.878906 C 9.625 23.808594 9.613281 25.308594 8.695312 26.226562 C 7.78125 27.144531 6.28125 27.152344 5.351562 26.253906 L 5.320312 26.226562 L 4.246094 25.152344 C 3.320312 24.222656 3.320312 22.707031 4.246094 21.773438 C 5.175781 20.847656 6.695312 20.847656 7.621094 21.773438 Z M 24.328125 9.5 L 24.925781 8.902344 L 27.867188 5.957031 C 28.796875 5.03125 28.796875 3.511719 27.867188 2.582031 C 26.9375 1.652344 25.421875 1.652344 24.492188 2.582031 L 21.230469 5.84375 L 20.953125 6.125 L 19.265625 7.8125 C 18.335938 8.738281 18.335938 10.257812 19.265625 11.1875 L 20.953125 12.878906 L 21.253906 13.175781 L 24.515625 16.441406 C 25.445312 17.367188 26.960938 17.367188 27.890625 16.441406 C 28.820312 15.511719 28.820312 13.992188 27.890625 13.0625 Z M 4.382812 2.601562 C 5.308594 1.671875 6.828125 1.671875 7.757812 2.601562 L 27.847656 22.703125 C 28.777344 23.628906 28.777344 25.152344 27.847656 26.078125 C 26.917969 27.007812 25.402344 27.007812 24.472656 26.078125 L 4.382812 5.976562 C 3.453125 5.050781 3.453125 3.53125 4.382812 2.601562 Z M 4.351562 12.226562 C 5.28125 11.296875 6.796875 11.296875 7.726562 12.226562 L 18.230469 22.730469 C 19.15625 23.660156 19.15625 25.179688 18.230469 26.105469 C 17.296875 27.035156 15.78125 27.035156 14.851562 26.105469 L 11.589844 22.84375 L 6.640625 17.890625 L 4.351562 15.601562 C 3.425781 14.675781 3.425781 13.152344 4.351562 12.226562 Z M 4.351562 12.226562 " fill-opacity="1" fill-rule="evenodd"/></g><g fill="#000000" fill-opacity="1"><g transform="translate(37.640626, 20.734993)"><g><path d="M 1.421875 0 L 1.421875 -14.609375 L 4.09375 -14.609375 L 4.09375 0 Z M 1.421875 0 "/></g></g></g><g fill="#000000" fill-opacity="1"><g transform="translate(46.384342, 20.734993)"><g><path d="M 1.421875 0 L 1.421875 -14.609375 L 4.09375 -14.609375 L 10.953125 -4.328125 L 10.953125 -14.609375 L 13.625 -14.609375 L 13.625 0 L 10.953125 0 L 4.09375 -10.265625 L 4.09375 0 Z M 1.421875 0 "/></g></g></g><g fill="#000000" fill-opacity="1"><g transform="translate(64.662549, 20.734993)"><g><path d="M 1.421875 0 L 1.421875 -14.609375 L 6.78125 -14.609375 C 7.945312 -14.609375 8.910156 -14.410156 9.671875 -14.015625 C 10.429688 -13.617188 11 -13.082031 11.375 -12.40625 C 11.75 -11.726562 11.9375 -10.984375 11.9375 -10.171875 C 11.9375 -9.273438 11.703125 -8.457031 11.234375 -7.71875 C 10.773438 -6.988281 10.050781 -6.453125 9.0625 -6.109375 L 12.09375 0 L 9.015625 0 L 6.296875 -5.765625 L 4.09375 -5.765625 L 4.09375 0 Z M 4.09375 -7.71875 L 6.625 -7.71875 C 7.507812 -7.71875 8.160156 -7.929688 8.578125 -8.359375 C 8.992188 -8.796875 9.203125 -9.367188 9.203125 -10.078125 C 9.203125 -10.773438 8.992188 -11.332031 8.578125 -11.75 C 8.171875 -12.164062 7.507812 -12.375 6.59375 -12.375 L 4.09375 -12.375 Z M 4.09375 -7.71875 "/></g></g></g><g fill="#000000" fill-opacity="1"><g transform="translate(80.896161, 20.734993)"><g><path d="M 1.421875 0 L 1.421875 -14.609375 L 10.953125 -14.609375 L 10.953125 -12.46875 L 4.09375 -12.46875 L 4.09375 -8.453125 L 10.328125 -8.453125 L 10.328125 -6.359375 L 4.09375 -6.359375 L 4.09375 -2.15625 L 10.953125 -2.15625 L 10.953125 0 Z M 1.421875 0 "/></g></g></g><g fill="#000000" fill-opacity="1"><g transform="translate(96.190925, 20.734993)"><g><path d="M 0.484375 0 L 5.828125 -14.609375 L 8.828125 -14.609375 L 14.171875 0 L 11.328125 0 L 10.171875 -3.375 L 4.46875 -3.375 L 3.28125 0 Z M 5.203125 -5.46875 L 9.4375 -5.46875 L 7.3125 -11.546875 Z M 5.203125 -5.46875 "/></g></g></g><g fill="#000000" fill-opacity="1"><g transform="translate(114.051863, 20.734993)"><g><path d="M 1.421875 0 L 1.421875 -14.609375 L 4.09375 -14.609375 L 4.09375 -2.09375 L 10.5625 -2.09375 L 10.5625 0 Z M 1.421875 0 "/></g></g></g></svg>